<svg width="176" height="94" viewBox="0 0 176 94" fill="none" xmlns="http://www.w3.org/2000/svg">
<path d="M0 93.0908V-9.15527e-05H40.1818C47.0909 -9.15527e-05 53.1364 1.25748 58.3182 3.77264C63.5 6.28779 67.5303 9.909 70.4091 14.6363C73.2879 19.3635 74.7273 25.0302 74.7273 31.6363C74.7273 38.3029 73.2424 43.9242 70.2727 48.4999C67.3333 53.0757 63.197 56.5302 57.8636 58.8635C52.5606 61.1969 46.3636 62.3635 39.2727 62.3635H15.2727V42.7272H34.1818C37.1515 42.7272 39.6818 42.3635 41.7727 41.6363C43.8939 40.8787 45.5152 39.6817 46.6364 38.0454C47.7879 36.409 48.3636 34.2726 48.3636 31.6363C48.3636 28.9696 47.7879 26.8029 46.6364 25.1363C45.5152 23.4393 43.8939 22.1969 41.7727 21.409C39.6818 20.5908 37.1515 20.1817 34.1818 20.1817H25.2727V93.0908H0ZM54.5455 50.3635L77.8182 93.0908H50.3636L27.6364 50.3635H54.5455ZM108.08 -9.15527e-05L127.17 65.6363H127.898L146.989 -9.15527e-05H175.534L144.807 93.0908H110.261L79.5341 -9.15527e-05H108.08Z" fill="black"/>
</svg>
